Joints
version=1
nRows=125
nColumns=4
inDegrees=yes
endheader
time	shoulder_elev	elbow_flexion	elv_angle
0.0    5.0 15.0 89
0.020161290322580645    5.0 15.0 89
0.04032258064516129    5.0089925046848975 15.0 89
0.06048387096774194    5.052471889315867 15.0 89
0.08064516129032258    5.161287440798043 15.0 89
0.10080645161290322    5.362073209465513 15.0 89
0.12096774193548387    5.677435352928922 15.0 89
0.1411290322580645    6.12613947992307 15.0 89
0.16129032258064516    6.723297994154525 15.0 89
0.1814516129032258    7.480557438149209 15.0 89
0.20161290322580644    8.406285837100013 15.0 89
0.2217741935483871    9.505760042714396 15.0 89
0.24193548387096775    10.781353077061983 15.0 89
0.2620967741935484    12.232721476422167 15.0 89
0.282258064516129    13.856992635131723 15.0 89
0.3024193548387097    15.64895214943239 15.0 89
0.3225806451612903    17.601231161318488 15.0 89
0.34274193548387094    19.704493702384518 15.0 89
0.3629032258064516    21.94762403767276 15.0 89
0.38306451612903225    24.317914009520877 15.0 89
0.4032258064516129    26.801250381409517 15.0 89
0.42338709677419356    29.382302181809912 15.0 89
0.4435483870967742    32.04470804803149 15.0 89
0.4637096774193548    34.77126357006945 15.0 89
0.4838709677419355    37.54410863445242 15.0 89
0.5040322580645161    40.34491476808999 15.0 89
0.5241935483870968    43.15507248212036 15.0 89
0.5443548387096774    45.95587861575793 15.0 89
0.564516129032258    48.7287236801409 15.0 89
0.5846774193548387    51.45527920217887 15.0 89
0.6048387096774194    54.11768506840045 15.0 89
0.625    56.69873686880084 15.0 89
0.6451612903225806    59.18207324068948 15.0 89
0.6653225806451613    61.55236321253759 15.0 89
0.6854838709677419    63.79549354782583 15.0 89
0.7056451612903225    65.89875608889186 15.0 89
0.7258064516129032    67.85103510077795 15.0 89
0.7459677419354839    69.64299461507862 15.0 89
0.7661290322580645    71.26726577378818 15.0 89
0.7862903225806451    72.71863417314837 15.0 89
0.8064516129032258    73.99422720749595 15.0 89
0.8266129032258064    75.09370141311034 15.0 89
0.8467741935483871    76.01942981206113 15.0 89
0.8669354838709677    76.77668925605582 15.0 89
0.8870967741935484    77.37384777028727 15.0 89
0.907258064516129    77.82255189728141 15.0 89
0.9274193548387096    78.13791404074482 15.0 89
0.9475806451612903    78.33869980941229 15.0 89
0.967741935483871    78.44751536089447 15.0 89
0.9879032258064516    78.49099474552543 15.0 89
1.0080645161290323    78.49998725021032 15.0 89
1.0282258064516128    78.49998725021032 15.0 89
1.0483870967741935    78.49998725021032 15.0 89
1.0685483870967742    78.49998725021032 15.0 89
1.0887096774193548    78.49998725021032 15.0 89
1.1088709677419355    78.49998725021032 15.0 89
1.129032258064516    78.49998725021032 15.0 89
1.1491935483870968    78.49998725021032 15.0 89
1.1693548387096775    78.49998725021032 15.0 89
1.189516129032258    78.49998725021032 15.0 89
1.2096774193548387    78.49998725021032 15.0 89
1.2298387096774193    78.49998725021032 15.0 89
1.25    78.49998725021032 15.0 89
1.2701612903225805    78.49998725021032 15.0 89
1.2903225806451613    78.49998725021032 15.0 89
1.310483870967742    78.49998725021032 15.0 89
1.3306451612903225    78.49998725021032 15.0 89
1.3508064516129032    78.49998725021032 15.0 89
1.3709677419354838    78.49998725021032 15.0 89
1.3911290322580645    78.49998725021032 15.0 89
1.411290322580645    78.49998725021032 15.0 89
1.4314516129032258    78.49998725021032 15.0 89
1.4516129032258065    78.49998725021032 15.0 89
1.471774193548387    78.49998725021032 15.0 89
1.4919354838709677    78.49998725021032 15.0 89
1.5120967741935483    78.49998725021032 15.0 89
1.532258064516129    78.49998725021032 15.0 89
1.5524193548387097    78.49099474552543 15.0 89
1.5725806451612903    78.44751536089446 15.0 89
1.592741935483871    78.33869980941228 15.0 89
1.6129032258064515    78.1379140407448 15.0 89
1.6330645161290323    77.82255189728141 15.0 89
1.6532258064516128    77.37384777028727 15.0 89
1.6733870967741935    76.77668925605582 15.0 89
1.6935483870967742    76.01942981206113 15.0 89
1.7137096774193548    75.09370141311032 15.0 89
1.7338709677419355    73.99422720749594 15.0 89
1.754032258064516    72.71863417314836 15.0 89
1.7741935483870968    71.26726577378817 15.0 89
1.7943548387096773    69.6429946150786 15.0 89
1.814516129032258    67.85103510077795 15.0 89
1.8346774193548387    65.89875608889184 15.0 89
1.8548387096774193    63.795493547825814 15.0 89
1.875    61.55236321253757 15.0 89
1.8951612903225805    59.182073240689455 15.0 89
1.9153225806451613    56.698736868800815 15.0 89
1.935483870967742    54.11768506840042 15.0 89
1.9556451612903225    51.45527920217884 15.0 89
1.9758064516129032    48.728723680140874 15.0 89
1.9959677419354838    45.955878615757904 15.0 89
2.0161290322580645    43.15507248212033 15.0 89
2.036290322580645    40.344914768089964 15.0 89
2.0564516129032255    37.54410863445239 15.0 89
2.0766129032258065    34.77126357006942 15.0 89
2.096774193548387    32.04470804803145 15.0 89
2.1169354838709675    29.38230218180988 15.0 89
2.1370967741935485    26.801250381409485 15.0 89
2.157258064516129    24.317914009520848 15.0 89
2.1774193548387095    21.947624037672732 15.0 89
2.1975806451612905    19.704493702384493 15.0 89
2.217741935483871    17.601231161318463 15.0 89
2.2379032258064515    15.648952149432363 15.0 89
2.258064516129032    13.856992635131697 15.0 89
2.278225806451613    12.232721476422142 15.0 89
2.2983870967741935    10.781353077061953 15.0 89
2.318548387096774    9.505760042714368 15.0 89
2.338709677419355    8.406285837099986 15.0 89
2.3588709677419355    7.480557438149184 15.0 89
2.379032258064516    6.723297994154506 15.0 89
2.3991935483870965    6.1261394799230535 15.0 89
2.4193548387096775    5.6774353529289066 15.0 89
2.439516129032258    5.362073209465504 15.0 89
2.4596774193548385    5.161287440798036 15.0 89
2.4798387096774195    5.052471889315861 15.0 89
2.5    5.008992504684894 15.0 89
